<?xml version="1.0" encoding="UTF-8" standalone="no"?>
<!-- Generated by graphviz version 2.42.4 (0)
 -->
<!-- Title: HomeSphereCompleteERD_NoLabels Pages: 1 -->
<svg width="1031pt" height="731pt"
 viewBox="0.00 0.00 1031.10 730.60" xmlns="http://www.w3.org/2000/svg" xmlns:xlink="http://www.w3.org/1999/xlink">
<g id="graph0" class="graph" transform="scale(1 1) rotate(0) translate(28.8 701.8)">
<title>HomeSphereCompleteERD_NoLabels</title>
<polygon fill="white" stroke="transparent" points="-28.8,28.8 -28.8,-701.8 1002.3,-701.8 1002.3,28.8 -28.8,28.8"/>
<!-- USERS -->
<g id="node1" class="node">
<title>USERS</title>
<polygon fill="none" stroke="black" points="439,-548.5 439,-672.5 592,-672.5 592,-548.5 439,-548.5"/>
<text text-anchor="middle" x="515.5" y="-659.7" font-family="Arial" font-size="11.00">USERS</text>
<polyline fill="none" stroke="black" points="439,-652.5 592,-652.5 "/>
<text text-anchor="start" x="447" y="-639.7" font-family="Arial" font-size="11.00">PK user_id : UUID</text>
<text text-anchor="start" x="447" y="-627.7" font-family="Arial" font-size="11.00">UK email : VARCHAR</text>
<text text-anchor="start" x="447" y="-615.7" font-family="Arial" font-size="11.00">first_name : VARCHAR</text>
<text text-anchor="start" x="447" y="-603.7" font-family="Arial" font-size="11.00">last_name : VARCHAR</text>
<text text-anchor="start" x="447" y="-591.7" font-family="Arial" font-size="11.00">phone_number : VARCHAR</text>
<text text-anchor="start" x="447" y="-579.7" font-family="Arial" font-size="11.00">password : VARCHAR</text>
<text text-anchor="start" x="447" y="-567.7" font-family="Arial" font-size="11.00">is_active : BOOLEAN</text>
<text text-anchor="start" x="447" y="-555.7" font-family="Arial" font-size="11.00">role : VARCHAR</text>
</g>
<!-- PROPERTIES -->
<g id="node2" class="node">
<title>PROPERTIES</title>
<polygon fill="none" stroke="black" points="237.5,-178.5 237.5,-482.5 413.5,-482.5 413.5,-178.5 237.5,-178.5"/>
<text text-anchor="middle" x="325.5" y="-469.7" font-family="Arial" font-size="11.00">PROPERTIES</text>
<polyline fill="none" stroke="black" points="237.5,-462.5 413.5,-462.5 "/>
<text text-anchor="start" x="245.5" y="-449.7" font-family="Arial" font-size="11.00">PK property_id : UUID</text>
<text text-anchor="start" x="245.5" y="-437.7" font-family="Arial" font-size="11.00">listed_date : DATE</text>
<text text-anchor="start" x="245.5" y="-425.7" font-family="Arial" font-size="11.00">description_html : TEXT</text>
<text text-anchor="start" x="245.5" y="-413.7" font-family="Arial" font-size="11.00">price : DOUBLE</text>
<text text-anchor="start" x="245.5" y="-401.7" font-family="Arial" font-size="11.00">bedrooms : INT</text>
<text text-anchor="start" x="245.5" y="-389.7" font-family="Arial" font-size="11.00">bathrooms : INT</text>
<text text-anchor="start" x="245.5" y="-377.7" font-family="Arial" font-size="11.00">availability_status : VARCHAR</text>
<text text-anchor="start" x="245.5" y="-365.7" font-family="Arial" font-size="11.00">house_type : VARCHAR</text>
<text text-anchor="start" x="245.5" y="-353.7" font-family="Arial" font-size="11.00">status : VARCHAR</text>
<text text-anchor="start" x="245.5" y="-341.7" font-family="Arial" font-size="11.00">approval_date : DATE</text>
<text text-anchor="start" x="245.5" y="-329.7" font-family="Arial" font-size="11.00">view_count : INT</text>
<text text-anchor="start" x="245.5" y="-317.7" font-family="Arial" font-size="11.00">listing_agent_name : VARCHAR</text>
<text text-anchor="start" x="245.5" y="-305.7" font-family="Arial" font-size="11.00">listing_agent_phone : VARCHAR</text>
<text text-anchor="start" x="245.5" y="-293.7" font-family="Arial" font-size="11.00">square_footage : DOUBLE</text>
<text text-anchor="start" x="245.5" y="-281.7" font-family="Arial" font-size="11.00">listing_for : VARCHAR</text>
<text text-anchor="start" x="245.5" y="-269.7" font-family="Arial" font-size="11.00">street : VARCHAR</text>
<text text-anchor="start" x="245.5" y="-257.7" font-family="Arial" font-size="11.00">city : VARCHAR</text>
<text text-anchor="start" x="245.5" y="-245.7" font-family="Arial" font-size="11.00">state : VARCHAR</text>
<text text-anchor="start" x="245.5" y="-233.7" font-family="Arial" font-size="11.00">zip_code : VARCHAR</text>
<text text-anchor="start" x="245.5" y="-221.7" font-family="Arial" font-size="11.00">country : VARCHAR</text>
<text text-anchor="start" x="245.5" y="-209.7" font-family="Arial" font-size="11.00">latitude : VARCHAR</text>
<text text-anchor="start" x="245.5" y="-197.7" font-family="Arial" font-size="11.00">longitude : VARCHAR</text>
<text text-anchor="start" x="245.5" y="-185.7" font-family="Arial" font-size="11.00">FK user_id : UUID</text>
</g>
<!-- USERS&#45;&gt;PROPERTIES -->
<g id="edge1" class="edge">
<title>USERS&#45;&gt;PROPERTIES</title>
<path fill="none" stroke="black" d="M477.67,-548.29C477.67,-495.75 477.67,-429 477.67,-429 477.67,-429 420.58,-429 420.58,-429"/>
<polygon fill="black" stroke="black" points="420.58,-426.55 413.58,-429 420.58,-431.45 420.58,-426.55"/>
<text text-anchor="middle" x="469.17" y="-463.1" font-family="Arial" font-size="10.00">1:M</text>
</g>
<!-- FAVOURITES -->
<g id="node4" class="node">
<title>FAVOURITES</title>
<polygon fill="none" stroke="black" points="0,-12.5 0,-100.5 163,-100.5 163,-12.5 0,-12.5"/>
<text text-anchor="middle" x="81.5" y="-87.7" font-family="Arial" font-size="11.00">FAVOURITES</text>
<polyline fill="none" stroke="black" points="0,-80.5 163,-80.5 "/>
<text text-anchor="start" x="8" y="-67.7" font-family="Arial" font-size="11.00">PK favourite_id : UUID</text>
<text text-anchor="start" x="8" y="-55.7" font-family="Arial" font-size="11.00">date_saved : TIMESTAMP</text>
<text text-anchor="start" x="8" y="-43.7" font-family="Arial" font-size="11.00">FK user_id : UUID</text>
<text text-anchor="start" x="8" y="-31.7" font-family="Arial" font-size="11.00">FK property_id : UUID</text>
<text text-anchor="start" x="8" y="-19.7" font-family="Arial" font-size="11.00">UNIQUE(user_id, property_id)</text>
</g>
<!-- USERS&#45;&gt;FAVOURITES -->
<g id="edge3" class="edge">
<title>USERS&#45;&gt;FAVOURITES</title>
<path fill="none" stroke="black" d="M438.83,-610C307.7,-610 54.33,-610 54.33,-610 54.33,-610 54.33,-107.86 54.33,-107.86"/>
<polygon fill="black" stroke="black" points="56.78,-107.86 54.33,-100.86 51.88,-107.86 56.78,-107.86"/>
<text text-anchor="middle" x="45.83" y="-554.18" font-family="Arial" font-size="10.00">1:M</text>
</g>
<!-- INQUIRIES -->
<g id="node5" class="node">
<title>INQUIRIES</title>
<polygon fill="none" stroke="black" points="394,-0.5 394,-112.5 555,-112.5 555,-0.5 394,-0.5"/>
<text text-anchor="middle" x="474.5" y="-99.7" font-family="Arial" font-size="11.00">INQUIRIES</text>
<polyline fill="none" stroke="black" points="394,-92.5 555,-92.5 "/>
<text text-anchor="start" x="402" y="-79.7" font-family="Arial" font-size="11.00">PK inquiry_id : UUID</text>
<text text-anchor="start" x="402" y="-67.7" font-family="Arial" font-size="11.00">message : VARCHAR</text>
<text text-anchor="start" x="402" y="-55.7" font-family="Arial" font-size="11.00">owner_response : VARCHAR</text>
<text text-anchor="start" x="402" y="-43.7" font-family="Arial" font-size="11.00">inquiry_date : DATE</text>
<text text-anchor="start" x="402" y="-31.7" font-family="Arial" font-size="11.00">status : VARCHAR</text>
<text text-anchor="start" x="402" y="-19.7" font-family="Arial" font-size="11.00">FK sender_id : UUID</text>
<text text-anchor="start" x="402" y="-7.7" font-family="Arial" font-size="11.00">FK property_id : UUID</text>
</g>
<!-- USERS&#45;&gt;INQUIRIES -->
<g id="edge5" class="edge">
<title>USERS&#45;&gt;INQUIRIES</title>
<path fill="none" stroke="black" d="M516.33,-548.29C516.33,-548.29 516.33,-119.58 516.33,-119.58"/>
<polygon fill="black" stroke="black" points="518.78,-119.58 516.33,-112.58 513.88,-119.58 518.78,-119.58"/>
<text text-anchor="middle" x="507.83" y="-336.94" font-family="Arial" font-size="10.00">1:M</text>
</g>
<!-- APPOINTMENTS -->
<g id="node6" class="node">
<title>APPOINTMENTS</title>
<polygon fill="none" stroke="black" points="595,-12.5 595,-100.5 740,-100.5 740,-12.5 595,-12.5"/>
<text text-anchor="middle" x="667.5" y="-87.7" font-family="Arial" font-size="11.00">APPOINTMENTS</text>
<polyline fill="none" stroke="black" points="595,-80.5 740,-80.5 "/>
<text text-anchor="start" x="603" y="-67.7" font-family="Arial" font-size="11.00">PK appointment_id : UUID</text>
<text text-anchor="start" x="603" y="-55.7" font-family="Arial" font-size="11.00">appointment_date : DATE</text>
<text text-anchor="start" x="603" y="-43.7" font-family="Arial" font-size="11.00">status : VARCHAR</text>
<text text-anchor="start" x="603" y="-31.7" font-family="Arial" font-size="11.00">FK user_id : UUID</text>
<text text-anchor="start" x="603" y="-19.7" font-family="Arial" font-size="11.00">FK property_id : UUID</text>
</g>
<!-- USERS&#45;&gt;APPOINTMENTS -->
<g id="edge7" class="edge">
<title>USERS&#45;&gt;APPOINTMENTS</title>
<path fill="none" stroke="black" d="M567.33,-548.24C567.33,-403.38 567.33,-56 567.33,-56 567.33,-56 587.97,-56 587.97,-56"/>
<polygon fill="black" stroke="black" points="587.97,-58.45 594.97,-56 587.97,-53.55 587.97,-58.45"/>
<text text-anchor="middle" x="558.83" y="-294.8" font-family="Arial" font-size="10.00">1:M</text>
</g>
<!-- REFRESH_TOKENS -->
<g id="node7" class="node">
<title>REFRESH_TOKENS</title>
<polygon fill="none" stroke="black" points="618,-286.5 618,-374.5 757,-374.5 757,-286.5 618,-286.5"/>
<text text-anchor="middle" x="687.5" y="-361.7" font-family="Arial" font-size="11.00">REFRESH_TOKENS</text>
<polyline fill="none" stroke="black" points="618,-354.5 757,-354.5 "/>
<text text-anchor="start" x="626" y="-341.7" font-family="Arial" font-size="11.00">PK id : UUID</text>
<text text-anchor="start" x="626" y="-329.7" font-family="Arial" font-size="11.00">UK token : VARCHAR</text>
<text text-anchor="start" x="626" y="-317.7" font-family="Arial" font-size="11.00">expires_at : TIMESTAMP</text>
<text text-anchor="start" x="626" y="-305.7" font-family="Arial" font-size="11.00">revoked : BOOLEAN</text>
<text text-anchor="start" x="626" y="-293.7" font-family="Arial" font-size="11.00">FK user_id : UUID</text>
</g>
<!-- USERS&#45;&gt;REFRESH_TOKENS -->
<g id="edge9" class="edge">
<title>USERS&#45;&gt;REFRESH_TOKENS</title>
<path fill="none" stroke="black" d="M579.67,-548.25C579.67,-465.61 579.67,-330 579.67,-330 579.67,-330 610.99,-330 610.99,-330"/>
<polygon fill="black" stroke="black" points="610.99,-332.45 617.99,-330 610.99,-327.55 610.99,-332.45"/>
<text text-anchor="middle" x="571.17" y="-426.46" font-family="Arial" font-size="10.00">1:M</text>
</g>
<!-- PASSWORD_RESET_TOKENS -->
<g id="node8" class="node">
<title>PASSWORD_RESET_TOKENS</title>
<polygon fill="none" stroke="black" points="797.5,-286.5 797.5,-374.5 973.5,-374.5 973.5,-286.5 797.5,-286.5"/>
<text text-anchor="middle" x="885.5" y="-361.7" font-family="Arial" font-size="11.00">PASSWORD_RESET_TOKENS</text>
<polyline fill="none" stroke="black" points="797.5,-354.5 973.5,-354.5 "/>
<text text-anchor="start" x="805.5" y="-341.7" font-family="Arial" font-size="11.00">PK id : UUID</text>
<text text-anchor="start" x="805.5" y="-329.7" font-family="Arial" font-size="11.00">token : VARCHAR</text>
<text text-anchor="start" x="805.5" y="-317.7" font-family="Arial" font-size="11.00">expires_at : TIMESTAMP</text>
<text text-anchor="start" x="805.5" y="-305.7" font-family="Arial" font-size="11.00">used : BOOLEAN</text>
<text text-anchor="start" x="805.5" y="-293.7" font-family="Arial" font-size="11.00">FK user_user_id : UUID</text>
</g>
<!-- USERS&#45;&gt;PASSWORD_RESET_TOKENS -->
<g id="edge10" class="edge">
<title>USERS&#45;&gt;PASSWORD_RESET_TOKENS</title>
<path fill="none" stroke="black" d="M592.16,-610C700.54,-610 885.5,-610 885.5,-610 885.5,-610 885.5,-381.79 885.5,-381.79"/>
<polygon fill="black" stroke="black" points="887.95,-381.79 885.5,-374.79 883.05,-381.79 887.95,-381.79"/>
<text text-anchor="middle" x="844.44" y="-613" font-family="Arial" font-size="10.00">1:M</text>
</g>
<!-- PROPERTY_IMAGES -->
<g id="node3" class="node">
<title>PROPERTY_IMAGES</title>
<polygon fill="none" stroke="black" points="203.5,-6.5 203.5,-106.5 353.5,-106.5 353.5,-6.5 203.5,-6.5"/>
<text text-anchor="middle" x="278.5" y="-93.7" font-family="Arial" font-size="11.00">PROPERTY_IMAGES</text>
<polyline fill="none" stroke="black" points="203.5,-86.5 353.5,-86.5 "/>
<text text-anchor="start" x="211.5" y="-73.7" font-family="Arial" font-size="11.00">PK image_id : UUID</text>
<text text-anchor="start" x="211.5" y="-61.7" font-family="Arial" font-size="11.00">image_url : VARCHAR</text>
<text text-anchor="start" x="211.5" y="-49.7" font-family="Arial" font-size="11.00">file_name : VARCHAR</text>
<text text-anchor="start" x="211.5" y="-37.7" font-family="Arial" font-size="11.00">display_order : INT</text>
<text text-anchor="start" x="211.5" y="-25.7" font-family="Arial" font-size="11.00">primary_image : BOOLEAN</text>
<text text-anchor="start" x="211.5" y="-13.7" font-family="Arial" font-size="11.00">FK property_id : UUID</text>
</g>
<!-- PROPERTIES&#45;&gt;PROPERTY_IMAGES -->
<g id="edge2" class="edge">
<title>PROPERTIES&#45;&gt;PROPERTY_IMAGES</title>
<path fill="none" stroke="black" d="M295.5,-178.28C295.5,-178.28 295.5,-113.62 295.5,-113.62"/>
<polygon fill="black" stroke="black" points="297.95,-113.62 295.5,-106.62 293.05,-113.62 297.95,-113.62"/>
<text text-anchor="middle" x="287" y="-148.95" font-family="Arial" font-size="10.00">1:M</text>
</g>
<!-- PROPERTIES&#45;&gt;FAVOURITES -->
<g id="edge4" class="edge">
<title>PROPERTIES&#45;&gt;FAVOURITES</title>
<path fill="none" stroke="black" d="M237.31,-330C177.27,-330 108.67,-330 108.67,-330 108.67,-330 108.67,-107.75 108.67,-107.75"/>
<polygon fill="black" stroke="black" points="111.12,-107.75 108.67,-100.75 106.22,-107.75 111.12,-107.75"/>
<text text-anchor="middle" x="100.17" y="-286.19" font-family="Arial" font-size="10.00">1:M</text>
</g>
<!-- PROPERTIES&#45;&gt;INQUIRIES -->
<g id="edge6" class="edge">
<title>PROPERTIES&#45;&gt;INQUIRIES</title>
<path fill="none" stroke="black" d="M403.75,-178.28C403.75,-178.28 403.75,-119.64 403.75,-119.64"/>
<polygon fill="black" stroke="black" points="406.2,-119.64 403.75,-112.64 401.3,-119.64 406.2,-119.64"/>
<text text-anchor="middle" x="395.25" y="-151.96" font-family="Arial" font-size="10.00">1:M</text>
</g>
<!-- PROPERTIES&#45;&gt;APPOINTMENTS -->
<g id="edge8" class="edge">
<title>PROPERTIES&#45;&gt;APPOINTMENTS</title>
<path fill="none" stroke="black" d="M413.64,-232C496.05,-232 606.5,-232 606.5,-232 606.5,-232 606.5,-107.79 606.5,-107.79"/>
<polygon fill="black" stroke="black" points="608.95,-107.79 606.5,-100.79 604.05,-107.79 608.95,-107.79"/>
<text text-anchor="middle" x="563.68" y="-235" font-family="Arial" font-size="10.00">1:M</text>
</g>
</g>
</svg>
